<?xml version="1.0"?>
<svg xmlns="http://www.w3.org/2000/svg" id="icons" enable-background="new 0 0 64 64" height="512px" viewBox="0 0 64 64" width="512px"><g><path d="m63 8.997h-62c-.553 0-1 .448-1 1v34 10.006c0 .553.447 1 1 1h62c.553 0 1-.447 1-1v-10.006-34c0-.552-.447-1-1-1zm-2.001 30.004h1.001v3.996h-1.001zm1.001 5.996v2.002h-60v-2.002zm-58.999-2h-1.001v-3.996h1.001zm-1.001 6.002h60v4.004h-60zm60-38.002v26.004h-2.001c-.553 0-1 .447-1 1v4.996h-53.998v-4.996c0-.553-.447-1-1-1h-2.001v-26.004z" data-original="#000000" class="active-path" data-old_color="#000000" fill="#F8C5BE"/><path d="m3.002 26.997c0 2.589.569 5.073 1.686 7.386.001.002.002.005.003.007.008.017.013.033.021.05.049.099.113.184.187.258.008.008.018.014.025.021.079.075.17.134.268.18.02.01.039.018.06.026.115.045.236.076.361.076.006 0 .012-.004.017-.004h14.369.001.004c.553 0 1-.447 1-1 0-.009-.005-.016-.005-.024v-2.951c0-.009.005-.016.005-.024s-.005-.016-.005-.024v-7.951c0-.009.005-.016.005-.024s-.005-.016-.005-.024v-2.951c0-.009.005-.016.005-.024 0-.552-.447-1-1-1-.001 0-.003 0-.004 0h-.001-7.136c-.007 0-.014 0-.021 0h-7.23c-.046 0-.086.02-.13.026-.078.01-.156.018-.229.046-.056.022-.101.057-.15.088-.06.036-.12.067-.172.115-.048.045-.08.102-.119.156-.032.045-.074.079-.1.13-.008.015-.012.031-.02.046-.001.002-.001.003-.002.005-1.119 2.31-1.688 4.795-1.688 7.385zm4.353-6c-.886 1.865-1.354 3.908-1.354 6s.468 4.135 1.354 6h-1.083c-.829-1.893-1.271-3.903-1.271-6s.441-4.108 1.271-6zm3.424 0c-1.155 1.771-1.777 3.839-1.777 6 0 2.16.622 4.229 1.777 6h-1.166c-1.052-1.818-1.611-3.879-1.611-6s.56-4.182 1.611-6zm3.95 0c-1.667 1.467-2.727 3.61-2.727 6s1.06 4.533 2.727 6h-1.422c-1.484-1.652-2.305-3.764-2.305-6s.821-4.347 2.304-6zm.273 6c0 2.413 1.718 4.432 3.995 4.898v1.011c-2.831-.48-4.995-2.944-4.995-5.909s2.164-5.429 4.995-5.909v1.011c-2.277.466-3.995 2.485-3.995 4.898zm3.995-2.814v5.629c-1.159-.416-1.995-1.514-1.995-2.814s.836-2.399 1.995-2.815z" data-original="#000000" class="active-path" data-old_color="#000000" fill="#F8C5BE"/><path d="m58.334 18.999h-14.323-.001c-.001 0-.003 0-.004 0-.553 0-1 .448-1 1 0 .009.005.016.005.024v2.951c0 .009-.005.016-.005.024s.005.016.005.024v7.951c0 .009-.005.016-.005.024s.005.016.005.024v2.951c0 .009-.005.016-.005.024 0 .553.447 1 1 1 .002 0 .003.001.005.001h7.132c.002 0 .003.001.005.001s.002.002.004.002h7.246c.006 0 .01-.003.016-.003.112-.002.221-.027.325-.065.034-.013.065-.027.097-.043.081-.039.154-.089.223-.149.019-.017.04-.029.058-.048.071-.074.135-.157.183-.255.007-.014.011-.028.018-.042.002-.004.003-.008.005-.012 1.116-2.311 1.685-4.794 1.685-7.384 0-2.589-.569-5.073-1.685-7.385-.002-.003-.003-.005-.004-.008-.008-.016-.013-.033-.021-.049-.026-.054-.071-.091-.105-.138-.036-.049-.065-.102-.109-.143-.061-.057-.131-.096-.202-.136-.039-.022-.073-.05-.115-.066-.092-.037-.189-.051-.29-.059-.026-.002-.049-.016-.076-.016h-.033c-.013.001-.023 0-.034 0zm.672 8c0 2.097-.441 4.108-1.271 6.001h-1.083c.886-1.866 1.354-3.909 1.354-6.001s-.468-4.135-1.354-6h1.083c.829 1.893 1.271 3.904 1.271 6zm-5.778 6.001c1.156-1.771 1.778-3.84 1.778-6.001 0-2.16-.622-4.229-1.777-6h1.166c1.052 1.818 1.611 3.879 1.611 6s-.56 4.182-1.612 6.001zm-3.95 0c1.668-1.467 2.728-3.61 2.728-6.001 0-2.39-1.06-4.533-2.727-6h1.423c1.483 1.653 2.304 3.764 2.304 6 0 2.237-.821 4.348-2.305 6.001zm-.272-6.001c0-2.413-1.718-4.432-3.995-4.898v-1.011c2.831.48 4.995 2.944 4.995 5.909s-2.164 5.429-4.995 5.909v-1.011c2.277-.466 3.995-2.485 3.995-4.898zm-3.995 2.814v-5.629c1.159.416 1.995 1.514 1.995 2.814s-.836 2.4-1.995 2.815z" data-original="#000000" class="active-path" data-old_color="#000000" fill="#F8C5BE"/><path d="m41 34.995c.553 0 1-.447 1-1v-14c0-.552-.447-1-1-1h-18c-.553 0-1 .448-1 1v14c0 .553.447 1 1 1zm-17-14h16v12h-16z" data-original="#000000" class="active-path" data-old_color="#000000" fill="#F8C5BE"/><path d="m54.962 37.996h-45.917c-.553 0-1 .447-1 1s.447 1 1 1h45.917c.553 0 1-.447 1-1s-.447-1-1-1z" data-original="#000000" class="active-path" data-old_color="#000000" fill="#F8C5BE"/><path d="m9.045 15.997h45.917c.553 0 1-.448 1-1s-.447-1-1-1h-45.917c-.553 0-1 .448-1 1s.447 1 1 1z" data-original="#000000" class="active-path" data-old_color="#000000" fill="#F8C5BE"/></g> </svg>
